<?xml version="1.0" standalone="no"?>
<!DOCTYPE svg PUBLIC "-//W3C//DTD SVG 20010904//EN"
 "http://www.w3.org/TR/2001/REC-SVG-20010904/DTD/svg10.dtd">
<svg version="1.0" xmlns="http://www.w3.org/2000/svg"
 width="300.000000pt" height="325.000000pt" viewBox="0 0 300.000000 325.000000"
 preserveAspectRatio="xMidYMid meet">

<g transform="translate(0.000000,325.000000) scale(0.100000,-0.100000)"
fill="#000000" stroke="none">
<path d="M796 3242 c-3 -5 -49 -7 -103 -5 l-98 4 -42 -40 c-23 -23 -47 -56
-52 -74 -7 -25 -9 -27 -10 -9 -1 32 23 76 56 101 25 18 25 20 8 20 -27 0 -75
-65 -76 -103 l-1 -31 -7 30 c-8 34 9 78 36 94 17 10 16 10 -2 11 -20 0 -49
-41 -58 -85 -3 -12 -5 -5 -6 14 0 19 6 42 16 53 15 17 15 18 -4 18 -21 0 -32
-22 -34 -70 -1 -24 -1 -24 -11 4 -8 21 -8 34 1 48 9 14 8 18 -4 18 -13 0 -17
-7 -17 -30 -1 -3 2 -18 6 -35 l6 -30 -16 29 c-9 15 -14 37 -11 47 5 17 -1 19
-46 18 -41 0 -47 -2 -29 -9 12 -5 22 -14 22 -20 0 -6 20 -32 45 -59 25 -26 42
-51 38 -55 -4 -4 0 -4 9 -1 10 4 36 -13 77 -50 54 -51 59 -58 45 -72 -31 -31
-69 -123 -44 -108 6 3 10 15 10 26 0 10 5 19 10 19 6 0 10 8 10 18 0 9 9 23
20 30 19 11 22 9 34 -20 10 -23 11 -38 4 -51 -5 -10 -8 -23 -6 -29 2 -6 32 28
67 76 34 47 65 86 68 86 3 0 1 -6 -4 -12 -72 -94 -140 -190 -165 -236 -17 -31
-38 -66 -47 -76 -9 -11 -10 -16 -3 -12 6 4 12 2 12 -3 0 -6 -6 -11 -14 -11 -8
0 -24 -15 -35 -34 -19 -30 -20 -39 -11 -83 8 -34 8 -63 1 -94 -6 -24 -11 -60
-11 -79 0 -25 -3 -31 -9 -20 -6 8 -7 28 -5 45 4 21 3 26 -4 16 -5 -7 -14 -11
-20 -7 -6 3 -20 -6 -31 -21 -15 -20 -19 -22 -14 -8 6 18 5 19 -12 5 -17 -14
-17 -14 -7 5 6 11 18 29 27 40 16 19 16 19 5 -3 -7 -13 -9 -26 -7 -29 7 -6 32
39 29 50 -1 5 2 6 8 2 5 -3 10 0 10 7 1 7 7 2 15 -12 19 -33 19 -21 0 23 -8
20 -15 44 -14 54 0 16 1 16 8 -1 6 -17 8 -17 14 -3 3 8 1 18 -6 21 -9 3 -8 7
3 15 8 5 11 13 8 17 -10 9 -69 -88 -63 -104 2 -7 1 -11 -3 -8 -11 6 -65 -92
-57 -104 3 -6 1 -10 -5 -10 -7 0 -9 -7 -6 -16 3 -8 2 -13 -3 -10 -15 9 -90
-185 -122 -314 -7 -30 -15 -48 -16 -39 -6 26 33 165 71 262 20 48 33 95 30
104 -4 11 -3 14 3 7 5 -8 28 29 63 100 30 61 58 114 63 117 4 3 -2 14 -13 24
-20 18 -21 18 -14 -1 7 -17 6 -17 -8 -6 -13 10 -22 11 -38 2 -11 -6 -18 -15
-15 -20 3 -4 -1 -11 -7 -13 -13 -5 15 -11 39 -8 6 1 15 -4 19 -10 4 -7 3 -9
-4 -5 -6 3 -14 1 -18 -5 -4 -8 -3 -9 4 -5 16 10 15 -6 -1 -28 -12 -16 -30 -18
-170 -17 l-156 2 -1 -1236 0 -1235 455 0 455 0 0 21 c0 12 10 30 22 40 23 21
33 24 23 10 -3 -5 0 -13 6 -17 8 -5 10 1 7 20 -4 18 -2 24 4 18 6 -6 8 -29 6
-52 l-4 -42 66 4 c52 4 78 12 130 42 36 20 76 45 89 55 l24 18 -31 -1 c-16 0
-28 -4 -26 -8 3 -4 -4 -6 -15 -5 -16 1 -18 4 -8 16 10 12 9 13 -10 3 -38 -21
-36 -13 11 40 25 29 46 58 46 65 0 7 6 16 13 20 42 27 109 242 98 317 -2 11 2
16 8 12 8 -5 8 1 1 19 -6 15 -10 42 -10 61 0 49 -17 115 -63 239 -40 111 -133
307 -179 380 -14 22 -37 63 -51 90 -15 28 -36 61 -47 75 l-22 25 7 -28 c4 -18
2 -26 -4 -22 -6 3 -19 1 -29 -4 -13 -7 -23 -6 -32 2 -7 7 -6 -2 4 -23 l17 -35
-24 28 c-27 32 -101 169 -112 207 -7 24 -7 24 8 5 8 -11 13 -23 11 -27 -2 -4
4 -6 15 -5 11 0 18 4 16 7 -2 3 0 12 6 20 7 13 9 12 9 -2 0 -10 5 -18 11 -18
6 0 8 9 4 23 l-6 22 20 -24 c36 -40 25 -1 -40 145 -65 148 -64 135 -24 229 7
17 25 63 39 103 27 77 35 131 10 75 -8 -18 -17 -33 -20 -33 -3 0 -2 6 2 13 4
6 -5 -1 -19 -18 -56 -64 -62 -71 -60 -67 1 2 -6 18 -16 35 -19 34 -44 110 -56
166 -5 26 -10 30 -17 20 -8 -11 -9 -10 -4 4 3 9 9 25 12 35 5 14 4 15 -5 2 -9
-12 -10 -6 -5 24 5 28 4 37 -5 32 -6 -4 -11 -3 -11 3 0 5 5 13 10 16 6 3 10
13 10 21 0 8 -4 12 -10 9 -5 -3 -10 1 -10 9 0 9 4 16 8 16 4 0 7 37 5 83 -2
45 3 136 12 202 9 66 17 138 18 160 1 22 6 43 10 46 5 3 10 26 11 50 2 24 5
45 6 47 1 1 3 5 4 10 1 4 4 12 7 17 4 6 5 18 3 28 -1 10 3 20 10 23 7 3 12 17
10 31 -1 15 2 36 9 47 6 12 10 25 9 29 -1 4 4 10 13 13 12 5 12 8 0 20 -15 16
-31 18 -39 6z m-439 -44 l12 -33 -19 24 c-21 24 -26 41 -12 41 4 0 13 -15 19
-32z m246 3 c-47 -34 -73 -67 -73 -93 0 -10 -4 -18 -8 -18 -5 0 -7 13 -4 30 5
33 81 110 108 110 11 0 1 -11 -23 -29z m62 7 c-42 -21 -95 -66 -95 -80 0 -4
21 8 47 28 52 40 122 78 130 70 3 -2 -14 -14 -37 -26 -23 -12 -39 -24 -36 -27
3 -3 26 6 51 20 50 28 51 17 1 -15 -28 -18 -29 -19 -6 -14 24 5 24 4 6 -9 -14
-11 -22 -12 -27 -4 -10 16 -29 2 -22 -16 3 -8 0 -15 -7 -15 -6 0 -8 5 -5 10
12 20 -12 9 -35 -15 -24 -25 -16 -35 10 -12 8 6 4 0 -9 -16 -16 -17 -27 -23
-31 -16 -4 6 -10 1 -14 -13 -5 -14 -9 -18 -13 -10 -2 6 -9 10 -13 7 -5 -3 -5
9 0 27 11 38 4 51 -9 17 -7 -18 -10 -20 -10 -6 -2 40 105 137 149 136 8 0 -3
-9 -25 -21z m135 -72 c0 -2 -8 -10 -17 -17 -16 -13 -17 -12 -4 4 13 16 21 21
21 13z m-104 -30 c-11 -6 -35 -27 -54 -46 -21 -22 -30 -27 -23 -14 12 25 84
85 91 77 3 -3 -4 -10 -14 -17z m74 -10 c0 -2 -8 -10 -17 -17 -16 -13 -17 -12
-4 4 13 16 21 21 21 13z m-104 -48 c-18 -26 -22 -17 -5 14 6 11 13 17 16 15 3
-3 -2 -16 -11 -29z m-187 -434 c-15 -53 -29 -65 -26 -22 2 31 24 74 33 65 2
-2 -1 -21 -7 -43z m-115 -59 c-4 -8 -11 -12 -16 -9 -6 4 -5 10 3 15 19 12 19
11 13 -6z m31 -65 c3 -5 1 -10 -4 -10 -6 0 -11 5 -11 10 0 6 2 10 4 10 3 0 8
-4 11 -10z m-142 -55 c-3 -9 -8 -14 -10 -11 -3 3 -2 9 2 15 9 16 15 13 8 -4z
m22 -6 c-5 -15 -4 -19 4 -15 6 4 11 3 11 -3 0 -5 -4 -13 -10 -16 -5 -3 -10 -1
-10 5 0 6 -5 8 -10 5 -6 -4 -5 5 2 19 14 31 22 34 13 5z m106 -52 c-10 -9 -11
-8 -5 6 3 10 9 15 12 12 3 -3 0 -11 -7 -18z m36 -84 c-3 -10 -5 -4 -5 12 0 17
2 24 5 18 2 -7 2 -21 0 -30z m-22 -53 c3 -6 -1 -7 -9 -4 -18 7 -21 14 -7 14 6
0 13 -4 16 -10z m332 -22 c-3 -8 -6 -5 -6 6 -1 11 2 17 5 13 3 -3 4 -12 1 -19z
m-357 -38 c0 -5 -4 -10 -10 -10 -5 0 -10 5 -10 10 0 6 5 10 10 10 6 0 10 -4
10 -10z m-230 -368 c-47 -510 210 -906 720 -1109 72 -29 238 -80 290 -90 14
-2 46 -10 72 -18 25 -7 48 -11 51 -9 3 3 8 1 12 -5 9 -15 -13 -14 -87 5 -343
86 -571 194 -750 355 -174 156 -282 361 -318 598 -17 110 -3 428 17 407 3 -2
-1 -63 -7 -134z m730 -218 c0 -8 -4 -12 -10 -9 -5 3 -10 10 -10 16 0 5 5 9 10
9 6 0 10 -7 10 -16z m-425 -914 c-3 -5 -14 -10 -23 -10 -15 0 -15 2 -2 10 20
13 33 13 25 0z m892 -116 c-3 -3 -12 -4 -19 -1 -8 3 -5 6 6 6 11 1 17 -2 13
-5z m-1127 -18 c0 -3 -4 -8 -10 -11 -5 -3 -10 -1 -10 4 0 6 5 11 10 11 6 0 10
-2 10 -4z m1038 -37 c-3 -8 -7 -3 -11 10 -4 17 -3 21 5 13 5 -5 8 -16 6 -23z
m-19 -24 c0 -5 -4 -3 -9 5 -5 8 -9 22 -9 30 0 16 17 -16 18 -35z m49 9 c-3
-14 -5 -12 -10 9 -3 19 -2 25 4 19 6 -6 8 -18 6 -28z m-21 -26 c-3 -8 -6 -5
-6 6 -1 11 2 17 5 13 3 -3 4 -12 1 -19z m-402 -8 c-3 -5 -12 -10 -18 -10 -7 0
-6 4 3 10 19 12 23 12 15 0z m209 -6 c3 -8 2 -12 -4 -9 -6 3 -10 10 -10 16 0
14 7 11 14 -7z m186 -53 c0 -32 -6 -24 -14 19 -4 25 -3 31 4 20 5 -8 10 -26
10 -39z m17 12 c-3 -10 -5 -4 -5 12 0 17 2 24 5 18 2 -7 2 -21 0 -30z m-120
-5 c-3 -8 -6 -5 -6 6 -1 11 2 17 5 13 3 -3 4 -12 1 -19z m50 0 c-3 -8 -6 -5
-6 6 -1 11 2 17 5 13 3 -3 4 -12 1 -19z m-20 -10 c-3 -8 -6 -5 -6 6 -1 11 2
17 5 13 3 -3 4 -12 1 -19z m50 -20 c-3 -7 -5 -2 -5 12 0 14 2 19 5 13 2 -7 2
-19 0 -25z m-90 -10 c-3 -8 -6 -5 -6 6 -1 11 2 17 5 13 3 -3 4 -12 1 -19z
m-40 -14 c2 -19 2 -19 -4 0 -3 13 -7 15 -13 7 -5 -10 -9 -9 -13 2 -4 10 0 14
11 13 9 -2 18 -11 19 -22z m90 -26 c-2 -13 -4 -5 -4 17 -1 22 1 32 4 23 2 -10
2 -28 0 -40z m20 30 c-3 -8 -6 -5 -6 6 -1 11 2 17 5 13 3 -3 4 -12 1 -19z
m-40 -40 c-3 -7 -5 -2 -5 12 0 14 2 19 5 13 2 -7 2 -19 0 -25z m-40 0 c-3 -8
-6 -5 -6 6 -1 11 2 17 5 13 3 -3 4 -12 1 -19z m20 0 c-3 -8 -6 -5 -6 6 -1 11
2 17 5 13 3 -3 4 -12 1 -19z m90 -10 c-3 -8 -6 -5 -6 6 -1 11 2 17 5 13 3 -3
4 -12 1 -19z m-542 2 c-3 -5 -15 -10 -26 -10 -11 0 -17 5 -14 10 3 6 15 10 26
10 11 0 17 -4 14 -10z m422 -72 c-3 -8 -6 -5 -6 6 -1 11 2 17 5 13 3 -3 4 -12
1 -19z m96 7 c-3 -9 -8 -14 -10 -11 -3 3 -2 9 2 15 9 16 15 13 8 -4z m-873 -5
c0 -5 -7 -10 -16 -10 -8 0 -12 5 -9 10 3 6 10 10 16 10 5 0 9 -4 9 -10z m600
-50 c0 -5 -2 -10 -4 -10 -3 0 -8 5 -11 10 -3 6 -1 10 4 10 6 0 11 -4 11 -10z
m0 -39 c0 -5 -7 -12 -16 -15 -14 -5 -15 -4 -4 9 14 17 20 19 20 6z m-310 -23
c0 -13 -48 -28 -65 -22 -14 6 -13 8 2 20 19 14 63 15 63 2z m217 6 c-3 -3 -12
-4 -19 -1 -8 3 -5 6 6 6 11 1 17 -2 13 -5z m21 -31 c-8 -10 -20 -27 -26 -38
-9 -15 -11 -16 -12 -4 0 8 9 25 20 37 25 26 40 30 18 5z m5 -38 c-3 -9 -8 -14
-10 -11 -3 3 -2 9 2 15 9 16 15 13 8 -4z"/>
<path d="M610 3134 c-23 -21 -40 -45 -40 -58 1 -19 2 -19 11 -3 6 9 14 15 20
12 5 -3 6 0 3 8 -3 9 10 27 33 46 21 17 32 31 25 31 -6 0 -30 -16 -52 -36z"/>
<path d="M37 3233 c24 -2 62 -2 85 0 24 2 5 4 -42 4 -47 0 -66 -2 -43 -4z"/>
<path d="M238 3233 c7 -3 16 -2 19 1 4 3 -2 6 -13 5 -11 0 -14 -3 -6 -6z"/>
<path d="M977 3039 c7 -7 15 -10 18 -7 3 3 -2 9 -12 12 -14 6 -15 5 -6 -5z"/>
<path d="M990 3016 c0 -2 7 -7 16 -10 8 -3 12 -2 9 4 -6 10 -25 14 -25 6z"/>
<path d="M1020 2986 c0 -2 8 -10 18 -17 15 -13 16 -12 3 4 -13 16 -21 21 -21
13z"/>
<path d="M1120 2856 c0 -2 8 -10 18 -17 15 -13 16 -12 3 4 -13 16 -21 21 -21
13z"/>
<path d="M457 2844 c-8 -8 1 -24 14 -24 5 0 9 7 9 15 0 15 -12 20 -23 9z"/>
<path d="M548 2838 c-13 -11 -32 -48 -25 -48 2 0 13 14 25 30 24 33 24 37 0
18z"/>
<path d="M453 2788 c2 -15 0 -29 -6 -31 -5 -1 -7 -12 -5 -22 4 -17 7 -16 17 9
8 21 15 26 23 18 8 -8 6 -15 -6 -27 -9 -9 -16 -21 -16 -26 0 -6 -4 -7 -10 -4
-5 3 -10 -1 -10 -11 0 -13 -3 -14 -13 -5 -10 8 -14 7 -14 -4 0 -8 4 -12 8 -9
4 2 10 0 14 -6 5 -9 -7 -14 -27 -11 -4 0 -4 -7 -1 -16 4 -11 8 -13 11 -5 2 7
7 10 12 7 5 -3 11 4 15 15 3 11 21 41 39 67 29 42 31 50 18 62 -12 12 -13 11
-8 -10 7 -22 5 -22 -19 6 l-27 30 5 -27z"/>
<path d="M260 2600 c8 -5 24 -10 34 -10 26 0 18 6 -19 14 -22 5 -26 4 -15 -4z"/>
<path d="M370 2606 c0 -2 7 -9 15 -16 13 -11 14 -10 9 4 -5 14 -24 23 -24 12z"/>
<path d="M250 2563 c-13 -15 -12 -16 4 -10 10 4 20 7 22 7 2 0 4 5 4 10 0 15
-13 12 -30 -7z"/>
<path d="M432 2510 c0 -14 2 -19 5 -12 2 6 2 18 0 25 -3 6 -5 1 -5 -13z"/>
<path d="M397 2443 c-4 -3 -7 -11 -7 -17 0 -6 5 -5 12 2 6 6 9 14 7 17 -3 3
-9 2 -12 -2z"/>
<path d="M1150 1257 c0 -11 39 -87 45 -87 6 0 -15 49 -32 75 -7 11 -13 16 -13
12z"/>
<path d="M1210 1140 c6 -11 13 -20 16 -20 2 0 0 9 -6 20 -6 11 -13 20 -16 20
-2 0 0 -9 6 -20z"/>
<path d="M1320 985 c13 -14 26 -25 28 -25 3 0 -5 11 -18 25 -13 14 -26 25 -28
25 -3 0 5 -11 18 -25z"/>
<path d="M1350 946 c0 -2 8 -10 18 -17 15 -13 16 -12 3 4 -13 16 -21 21 -21
13z"/>
<path d="M1430 856 c0 -2 8 -10 18 -17 15 -13 16 -12 3 4 -13 16 -21 21 -21
13z"/>
<path d="M1380 535 c0 -5 5 -17 10 -25 5 -8 10 -10 10 -5 0 6 -5 17 -10 25 -5
8 -10 11 -10 5z"/>
<path d="M1421 474 c0 -11 3 -14 6 -6 3 7 2 16 -1 19 -3 4 -6 -2 -5 -13z"/>
</g>
</svg>
